<?xml version="1.0" encoding="UTF-8" standalone="no"?>
<svg
   xmlns:dc="http://purl.org/dc/elements/1.1/"
   xmlns:cc="http://creativecommons.org/ns#"
   xmlns:rdf="http://www.w3.org/1999/02/22-rdf-syntax-ns#"
   xmlns:svg="http://www.w3.org/2000/svg"
   xmlns="http://www.w3.org/2000/svg"
   xmlns:sodipodi="http://sodipodi.sourceforge.net/DTD/sodipodi-0.dtd"
   xmlns:inkscape="http://www.inkscape.org/namespaces/inkscape"
   viewBox="0 0 199.99999 199.99999"
   version="1.1"
   id="svg879"
   sodipodi:docname="logo-round.svg"
   width="200"
   height="200"
   inkscape:version="0.92.2 (5c3e80d, 2017-08-06)"
   inkscape:export-filename="./logo-round-125px.png"
   inkscape:export-xdpi="61.150002"
   inkscape:export-ydpi="61.150002">
  <metadata
     id="metadata883">
    <rdf:RDF>
      <cc:Work
         rdf:about="">
        <dc:format>image/svg+xml</dc:format>
        <dc:type
           rdf:resource="http://purl.org/dc/dcmitype/StillImage" />
        <dc:title>logo</dc:title>
      </cc:Work>
    </rdf:RDF>
  </metadata>
  <sodipodi:namedview
     pagecolor="#ffffff"
     bordercolor="#666666"
     borderopacity="1"
     objecttolerance="10"
     gridtolerance="10"
     guidetolerance="10"
     inkscape:pageopacity="0"
     inkscape:pageshadow="2"
     inkscape:window-width="1533"
     inkscape:window-height="845"
     id="namedview881"
     showgrid="false"
     inkscape:zoom="1.3142321"
     inkscape:cx="-15.871669"
     inkscape:cy="13.190316"
     inkscape:window-x="67"
     inkscape:window-y="27"
     inkscape:window-maximized="1"
     inkscape:current-layer="svg879" />
  <defs
     id="defs871">
    <style
       id="style869">.cls-1{fill:#42b883;}.cls-2{fill:#35495e;}</style>
  </defs>
  <title
     id="title873">logo</title>
  <circle
     style="opacity:1;vector-effect:none;fill:#ffffff;fill-opacity:1;stroke:none;stroke-width:3.75819087;stroke-linecap:butt;stroke-linejoin:miter;stroke-miterlimit:4;stroke-dasharray:none;stroke-dashoffset:0;stroke-opacity:1"
     id="path1793"
     cx="100"
     cy="100"
     r="98.120903" />
  <polygon
     class="cls-1"
     points="0,0 98.16,170.02 196.32,0 120.83,0 98.16,39.26 75.49,0 "
     id="polygon875"
     style="fill:#42b883"
     transform="matrix(0.69371425,0,0,0.69371425,32.065008,35.391908)" />
  <polygon
     class="cls-2"
     points="39.26,0 98.16,102.01 157.06,0 120.83,0 98.16,39.26 75.49,0 "
     id="polygon877"
     style="fill:#35495e"
     transform="matrix(0.69371425,0,0,0.69371425,32.065008,35.391908)" />
  <path
     sodipodi:nodetypes="cssssssssssssssssssssscc"
     inkscape:connector-curvature="0"
     id="path5117"
     d="m 134.02864,167.67277 c -2.75359,-1.29133 -2.65272,-18.56554 -2.65272,-45.00102 0,-20.53603 0.0914,-24.218268 0.6536,-26.311216 0.70393,-2.620892 1.69168,-4.359454 3.47678,-6.119539 2.48965,-2.454795 2.54898,-2.684079 2.66262,-10.289444 0.10602,-7.092237 0.71325,-11.485501 2.15761,-15.608945 1.03373,-2.951177 1.10114,-3.802994 0.38521,-4.867708 -0.82654,-1.229234 -0.84342,-2.890332 -0.0414,-4.073021 0.89266,-1.316315 0.77579,-1.879768 -0.61725,-2.975713 -1.91619,-1.507528 -1.39744,-2.913859 1.2938,-3.507441 1.85006,-0.408053 11.7334,-0.388091 13.67984,0.02762 2.61421,0.558345 3.07367,1.959448 1.14117,3.479814 -1.46724,1.154315 -1.49778,1.38334 -0.40398,3.031085 0.89951,1.355084 0.83099,2.337747 -0.29622,4.247152 -0.58964,0.99884 -0.57238,1.290914 0.22563,3.813262 1.77577,5.612927 2.23007,8.614386 2.36139,15.601322 0.0706,3.757649 0.23805,7.283813 0.37206,7.835913 0.13399,0.552116 1.1733,1.982089 2.30958,3.177725 1.13627,1.195646 2.47908,3.103371 2.98403,4.239413 0.91394,2.05616 0.91862,2.178677 1.03336,27.078191 0.12731,27.62377 0.21511,44.92081 -2.46631,46.17807 -1.2942,0.60683 -2.05662,0.64131 -14.17694,0.64131 -11.80511,0 -12.90897,-0.0468 -14.08186,-0.59685 z"
     style="fill:#35495e;fill-opacity:1;stroke:#35495e;stroke-width:3.81503749;stroke-miterlimit:4;stroke-dasharray:none;stroke-opacity:1" />
</svg>
