<svg xmlns="http://www.w3.org/2000/svg" class="logo" viewBox="0 0 200 200"><circle cx="100" cy="100" r="98.121" fill="#fff"/><path fill="#42b883" d="M32.065 35.392l68.095 117.945 68.095-117.945h-52.368L100.16 62.627 84.433 35.392z"/><path fill="#35495e" d="M59.3 35.392l40.86 70.766 40.86-70.766h-25.133L100.16 62.627 84.433 35.392z"/><path d="M134.029 167.673c-2.754-1.292-2.653-18.566-2.653-45.001 0-20.536.091-24.219.654-26.311.703-2.621 1.691-4.36 3.476-6.12 2.49-2.455 2.55-2.684 2.663-10.29.106-7.092.713-11.485 2.158-15.608 1.033-2.952 1.1-3.803.385-4.868-.827-1.23-.844-2.89-.042-4.073.893-1.316.776-1.88-.617-2.976-1.916-1.507-1.397-2.914 1.294-3.507 1.85-.408 11.733-.388 13.68.027 2.614.559 3.073 1.96 1.14 3.48-1.466 1.154-1.497 1.383-.403 3.031.9 1.355.83 2.338-.296 4.247-.59 1-.573 1.291.225 3.814 1.776 5.613 2.23 8.614 2.362 15.601.07 3.758.238 7.284.372 7.836.134.552 1.173 1.982 2.31 3.178 1.136 1.195 2.478 3.103 2.983 4.239.914 2.056.919 2.179 1.034 27.078.127 27.624.215 44.921-2.467 46.178-1.294.607-2.056.642-14.177.642-11.805 0-12.908-.047-14.081-.597z" fill="#35495e" stroke="#35495e" stroke-width="3.815" /></svg>