<svg xmlns="http://www.w3.org/2000/svg" viewBox="0 0 200 200" class="logo_lib"><path style="marker:none" d="M171.707 200.224l-.002-.755c-1.56-2.29-3.217-3.663-5.069-5.715-1.758-1.949-5.97-5.132-5.97-5.132l11.102-14.979s3.82 5.67 5.761 8.484c2.107 3.054 4.3 6.048 6.39 9.113 2.029 2.977 4.001 5.148 5.97 8.165v.87" color="#000" overflow="visible" fill="#fca" stroke="#333" stroke-width="2.933" stroke-linejoin="round"/><path style="marker:none" d="M104.05 167.063c-6.31 1.464-51.159-4.596-68.536-9.72l-15.396 1.822s10.096-26.671 13.004-24.575c1.596 1.15 2.77 2.358 4.397 3.465 2.01 1.368 4.06 2.738 6.308 3.662 2.725 1.12 5.866 1.823 8.74 2.474 4.156.94 8.156 1.525 12.367 2.18 10.67 1.658 32.173 3.774 32.173 3.774z" color="#000" overflow="visible" fill="#fca" stroke="#333" stroke-width="2.933" stroke-linecap="round" stroke-linejoin="round"/><path style="marker:none" d="M37.868 200.312L19.015 76.124c-3.168 2.533-8.46 3.889-13.255 2.012l18.548 122.176" color="#000" overflow="visible" fill="#fc0" stroke="#333" stroke-width="2.933" stroke-linejoin="round"/><path style="marker:none" d="M15.132 78.292a20.124 20.124 0 0 1-4.94.783l18.405 121.237h5.059z" color="#000" overflow="visible" fill="#333"/><path d="M6.428 49.265l-.88 28.718.236.31-.024-.152c4.7 1.839 9.87.567 13.058-1.867l.144-.517-8.551-27.014c-.233.16-.467.327-.724.44a4.197 4.197 0 0 1-1.138.32 4.687 4.687 0 0 1-1.271-.012c-.27-.038-.564-.142-.85-.226z" style="marker:none" color="#000" overflow="visible" fill="#e9c6af" stroke="#333" stroke-width="2.933" stroke-linejoin="round"/><path d="M6.428 49.265c.286.084.58.188.85.226.446.062.868.066 1.27.013a4.2 4.2 0 0 0 1.139-.321c.257-.113.491-.28.724-.44L6.79 37.32z" style="marker:none" color="#000" overflow="visible" fill="#333" stroke="#333" stroke-width="2.933" stroke-linejoin="round"/><path style="marker:none" d="M11.837 159.823c1.185.637 2.646.706 3.994.67 2.475-.065 5.001-.58 7.226-1.618 1.08-.504 2.255-1.137 2.815-2.166.346-.636.334-1.456.164-2.16-.202-.836-.647-1.7-1.35-2.222-.907-.674-2.161-.828-3.297-.875-2.387-.098-4.76.574-7.035 1.264-1.373.417-2.821.71-3.684 1.827-.69.893-1.078 2.146-.74 3.222.277.882 1.076 1.612 1.907 2.058z" color="#000" overflow="visible" fill="#fca" stroke="#333" stroke-width="2.933" stroke-linecap="round" stroke-linejoin="round"/><path style="marker:none" d="M8.86 152.286c1.234.789 2.808.96 4.268 1.006 2.68.085 5.45-.328 7.933-1.348 1.204-.494 2.522-1.127 3.204-2.243.422-.69.47-1.607.338-2.407-.156-.947-.572-1.942-1.293-2.572-.93-.812-2.275-1.065-3.5-1.19-2.573-.263-5.189.337-7.699.964-1.515.378-3.103.614-4.12 1.808-.812.954-1.325 2.332-1.04 3.558.235 1.003 1.044 1.872 1.909 2.424z" color="#000" overflow="visible" fill="#fca" stroke="#333" stroke-width="2.933" stroke-linecap="round" stroke-linejoin="round"/><path style="marker:none" d="M7.636 143.072c1.138.922 2.683 1.27 4.128 1.48 2.655.385 5.453.287 8.035-.448 1.252-.356 2.632-.836 3.436-1.868.496-.638.647-1.544.606-2.354-.048-.959-.35-1.994-.995-2.7-.834-.913-2.14-1.315-3.344-1.577-2.527-.551-5.194-.25-7.759.092-1.548.205-3.152.26-4.296 1.333-.915.857-1.58 2.168-1.434 3.418.12 1.024.827 1.978 1.623 2.624z" color="#000" overflow="visible" fill="#fca" stroke="#333" stroke-width="2.933" stroke-linecap="round" stroke-linejoin="round"/><path style="marker:none" d="M28.85 141.868c-1.61-2.765-4.403-3.478-5.679-2.77-2.248 1.247-2.582 3.422-5.094 3.968a7.497 7.497 0 0 1-4.205-.326c-1.102-.425-2.187-1.162-2.801-2.171-.706-1.162-.994-2.678-.735-4.013.242-1.252.943-1.887 2.041-3.233 1.099-1.346 2.21-3.36 4.171-4.504 1.962-1.144 3.723-1.976 5.913-2.578 2.127-.583 4.523.265 6.614.967 0 0 3.824 2.69 5.265 3.995 2.273 2.06 1.924 4.41 3.98 7.306l2.01 1.59" color="#000" overflow="visible" fill="#fca" stroke="#333" stroke-width="2.933" stroke-linecap="round" stroke-linejoin="round"/><path d="M150.211 187.322c-2.074 0-48.29-15.405-48.29-15.405l-18.768 3.78.346-29.428 21.509-2.177 47.573.273 22.22 29.922-15.406 21.33z" style="marker:none" color="#000" overflow="visible" fill="#a00" stroke="#333" stroke-width="2.933" stroke-linecap="round" stroke-linejoin="round"/><path d="M70.222 97.408c.401 11.913 4.276 24.229 12.146 33.18 7.473 8.501 18.693 13.663 29.626 16.591 11.066 2.964 23.224 3.11 34.366.444 10.138-2.426 19.44-7.44 26.811-14.812 5.794-5.795 10.113-14.269 13.036-21.923 2.306-6.042 3.72-11.908 3.999-18.368.374-8.646.262-18.181-4.148-25.627-5.486-9.263-15.424-15.999-25.478-19.849-11.925-4.567-25.548-4.272-38.217-2.666-10.069 1.276-20.415 4.037-28.885 9.628-6.83 4.509-12.226 11.266-16.294 18.368-4.362 7.615-7.258 16.263-6.962 25.034z" style="marker:none" color="#000" overflow="visible" fill="#fca" stroke="#333" stroke-width="2.933"/><ellipse style="marker:none" cx="136.954" cy="97.037" rx="10.295" ry="12.961" color="#000" overflow="visible" fill="#333"/><ellipse style="marker:none" cx="132.362" cy="92.594" rx="3.037" ry="4.074" color="#000" overflow="visible" fill="#f2f2f2"/><ellipse style="marker:none" cx="99.329" cy="97.26" rx="9.48" ry="13.258" color="#000" overflow="visible" fill="#333"/><ellipse style="marker:none" cx="95.1" cy="92.714" rx="2.796" ry="4.167" color="#000" overflow="visible" fill="#f2f2f2"/><path d="M126.659 78.595c.72-.229 15.736-6.722 18.516-6.665 2.357.048 7.477 4.739 9.253 6.637 1.518 1.623-3.36 7.917-4.88 6.084-1.658-2.002-3.655-3.3-4.138-3.59-.575-.345-17.137 0-18.01.053-1.781.104-3.125-1.76-.741-2.519zM107.813 79.702c-.75-.084-15.17-7.33-17.95-7.272-2.356.048-7.418 5.012-8.868 7.17-1.24 1.845 4.58 7.28 5.787 5.228 1.318-2.241 2.363-2.977 2.847-3.267.575-.345 17.081.875 17.948.755 1.767-.244 2.722-2.334.236-2.614z" style="marker:none" color="#000" overflow="visible" fill="#333"/><path d="M106.682 131.747c8.542 2.8 18.347-2.63 18.347-2.63" style="marker:none" color="#000" overflow="visible" fill="none" stroke="#333" stroke-width="2.933" stroke-linecap="round"/><path d="M175.225 115.72c.838 1.572 2.202 2.84 3.876 3.457 2.025.746 3.98.418 5.97-.419 2.716-1.143 5.872-3.054 7.96-5.132 2.158-2.148 3.566-4.577 4.61-7.437.79-2.169.91-4.402.732-6.704-.163-2.122-1.046-3.898-1.99-5.342-.919-1.405-2.088-2.358-3.666-2.932-1.877-.683-4.212-.514-6.075.21-2.786 1.08-4.736 2.245-6.808 4.398-1.008 1.047-2.514 3.666-2.514 3.666" style="marker:none" color="#000" overflow="visible" fill="#fca" stroke="#333" stroke-width="2.933" stroke-linecap="round" stroke-linejoin="round"/><path d="M181.195 102.468c.292-1.074 2.726-2.986 4.673-2.776 1.78.192 3.372 1.14 3.992 2.687.43 1.073.16 3.004-.39 4.03-.771 1.439-1.733 2.863-3.407 3.314-1.307.352-3.213.358-4.38-.717" style="marker:none" color="#000" overflow="visible" fill="none" stroke="#333" stroke-width="2.614" stroke-linecap="round" stroke-linejoin="round"/><path style="marker:none" d="M103.403 159.77c-1.879 7.515-3.71 22.83-5.35 40.542h56.42c-1.25-16.02-1.89-27.51-1.89-27.51z" color="#000" overflow="visible" fill="#a00"/><path d="M109.136 175.266c-.872.533-1.68 1.411-2.386 2.055a22.313 22.313 0 0 0-2.516 2.76c-.316.32-.488 1.009-.615 1.304l-.772-1.524c-.418-1.35-.61-1.196.29-2.471.736-1.043 1.339-1.698 2.312-2.724.68-.717 1.757-1.733 2.801-2.365z" fill="red" fill-rule="evenodd" stroke="#f9f9f9" stroke-width="1.061" stroke-linecap="round" stroke-linejoin="round"/><ellipse cy="183.39" cx="116.782" transform="skewY(-5.503) scale(.9954 1)" rx="9.15" ry="10.762" fill="#d5b664" stroke="#f9f9f9" stroke-width="1.063"/><path d="M131.007 162.646c-.017.003-.036.01-.054.014a.73.73 0 0 0-.329.186c-7.359 6.748-18.231 13.233-23.393 15.46-1.304.562-2.262.875-2.909.985-.326.12-1.405.115-1.66.033l.534 1.528c.62 1.446.692 1.262 2.02 1.002.922-.181 1.674-.47 3.036-1.058 5.409-2.333 15.63-8.53 23.199-15.47.27-.24.386-.65.283-1.005-.103-.354-.402-1.726-.727-1.675z" fill="red" fill-rule="evenodd" stroke="#f9f9f9" stroke-width="1.061" stroke-linecap="round" stroke-linejoin="round"/><path d="M138.21 157.667c-.797-1.367-4.176 1.27-5.09 1.784-.477.267-1.901-.93-2.749-.178-.836.74-.098 1.428-.223 2.864-.056.642-.289.852-.149 1.516.054.255.235.55.388.818l.001.002c.157.264.308.538.488.684.467.379.706.178 1.221.325 1.154.328 1.443 1.405 2.292.685.86-.73.402-2.763.765-3.224.698-.884 3.852-3.91 3.055-5.276z" fill="red" stroke="#f9f9f9" stroke-width="1.061"/><path d="M125.32 167.409l.98 2.112M127.306 165.82l1.01 2.09M128.663 164.674l1.053 2.098" style="marker:none" overflow="visible" fill="#c4281b" stroke="#f9f9f9" stroke-width="1.061" stroke-linecap="round"/><path d="M112.748 113.658c-4.059.024-8.844.613-11.86 1.987-5.434 2.476-8.028 5.808-9.372 11.625-1.579 6.835 1.288 14.74 5.756 20.147 4.169 5.044 10.696 8.89 17.217 9.433 6.348.528 13.166-2.197 18.047-6.289 5.188-4.348 9.172-10.982 9.925-17.709.518-4.632-.616-10.173-3.974-13.407-5.457-5.254-14.474-4.875-22.01-5.633-1.1-.11-2.376-.161-3.729-.154zm-3.339 9.464c1.396-.041 2.824.13 4.21.246 3.995.337 8.32.284 11.83 2.223 1.909 1.054 3.774 2.728 4.445 4.803.785 2.432.244 5.347-.943 7.61-1.334 2.546-3.562 5.885-6.432 5.736-2.372-.124-2.715-4.134-4.803-5.265-1.286-.696-2.904-1.02-4.333-.706-2.114.464-3.227 3.875-5.377 3.625-2.852-.33-4.594-3.741-5.858-6.32-1.15-2.343-1.936-5.277-.871-7.66.98-2.194 3.372-3.232 5.674-3.923.799-.24 1.62-.344 2.458-.369z" style="marker:none" color="#000" overflow="visible" fill="#333"/><path d="M154.472 200.312c-1.25-16.02-1.89-27.51-1.89-27.51m-49.18-13.032c-1.878 7.515-3.71 22.83-5.35 40.542" style="marker:none" color="#000" overflow="visible" fill="#a00" stroke="#000" stroke-width="2.933" stroke-linejoin="round"/></svg>