<?xml version="1.0" encoding="UTF-8" standalone="no"?>
<!-- Created with Inkscape (http://www.inkscape.org/) -->

<svg
   xmlns:dc="http://purl.org/dc/elements/1.1/"
   xmlns:cc="http://creativecommons.org/ns#"
   xmlns:rdf="http://www.w3.org/1999/02/22-rdf-syntax-ns#"
   xmlns:svg="http://www.w3.org/2000/svg"
   xmlns="http://www.w3.org/2000/svg"
   xmlns:sodipodi="http://sodipodi.sourceforge.net/DTD/sodipodi-0.dtd"
   xmlns:inkscape="http://www.inkscape.org/namespaces/inkscape"
   viewBox="0 0 48 48"
   version="1.1"
   id="svg1138"
   inkscape:version="0.92.2 (5c3e80d, 2017-08-06)"
   sodipodi:docname="logo-monochrome.svg">
  <defs
     id="defs1132" />
  <sodipodi:namedview
     id="base"
     pagecolor="#ffffff"
     bordercolor="#666666"
     borderopacity="1.0"
     inkscape:pageopacity="0.0"
     inkscape:pageshadow="2"
     inkscape:zoom="0.7"
     inkscape:cx="516.02851"
     inkscape:cy="293.13921"
     inkscape:document-units="mm"
     inkscape:current-layer="layer1"
     showgrid="false"
     fit-margin-top="0"
     fit-margin-left="0"
     fit-margin-right="0"
     fit-margin-bottom="0"
     inkscape:window-width="1533"
     inkscape:window-height="845"
     inkscape:window-x="67"
     inkscape:window-y="27"
     inkscape:window-maximized="1" />
  <metadata
     id="metadata1135">
    <rdf:RDF>
      <cc:Work
         rdf:about="">
        <dc:format>image/svg+xml</dc:format>
        <dc:type
           rdf:resource="http://purl.org/dc/dcmitype/StillImage" />
        <dc:title></dc:title>
      </cc:Work>
    </rdf:RDF>
  </metadata>
  <g
     inkscape:label="Layer 1"
     inkscape:groupmode="layer"
     id="layer1"
     transform="translate(-25.237402,-27.139176)">
    <path
       inkscape:connector-curvature="0"
       style="color:#000000;font-style:normal;font-variant:normal;font-weight:normal;font-stretch:normal;font-size:medium;line-height:normal;font-family:sans-serif;font-variant-ligatures:normal;font-variant-position:normal;font-variant-caps:normal;font-variant-numeric:normal;font-variant-alternates:normal;font-feature-settings:normal;text-indent:0;text-align:start;text-decoration:none;text-decoration-line:none;text-decoration-style:solid;text-decoration-color:#000000;letter-spacing:normal;word-spacing:normal;text-transform:none;writing-mode:lr-tb;direction:ltr;text-orientation:mixed;dominant-baseline:auto;baseline-shift:baseline;text-anchor:start;white-space:normal;shape-padding:0;clip-rule:nonzero;display:inline;overflow:visible;visibility:visible;opacity:1;isolation:auto;mix-blend-mode:normal;color-interpolation:sRGB;color-interpolation-filters:linearRGB;solid-color:#000000;solid-opacity:1;vector-effect:none;fill:#000000;fill-opacity:1;fill-rule:nonzero;stroke:none;stroke-width:0.67286509;stroke-linecap:butt;stroke-linejoin:miter;stroke-miterlimit:4;stroke-dasharray:none;stroke-dashoffset:0;stroke-opacity:1;color-rendering:auto;image-rendering:auto;shape-rendering:auto;text-rendering:auto;enable-background:accumulate"
       d="m 49.23765,28.409176 c -12.549533,0 -22.730248,10.180732 -22.730248,22.730085 0,12.549346 10.180715,22.729915 22.730248,22.729915 12.549531,0 22.729752,-10.180569 22.729752,-22.729915 0,-12.549353 -10.180221,-22.730085 -22.729752,-22.730085 z m 0,0.6732 c 12.185887,0 22.057206,9.871177 22.057206,22.056885 0,12.185709 -9.871319,22.056884 -22.057206,22.056884 -12.185887,0 -22.05787,-9.871175 -22.05787,-22.056884 0,-12.185708 9.871983,-22.056885 22.05787,-22.056885 z M 35.814477,35.33702 v 5.684837 h 0.993878 v -2.374945 h 2.905619 v 2.374945 h 1.002177 V 35.33702 h -1.002177 v 2.316028 H 36.808355 V 35.33702 Z m 7.960159,0 c -0.336887,0 -0.625966,0.03924 -0.867404,0.117841 -0.23582,0.07299 -0.43234,0.1798 -0.589555,0.32017 -0.151599,0.134752 -0.263944,0.297565 -0.336935,0.488463 -0.07299,0.190899 -0.109547,0.398658 -0.109547,0.623242 0,0.634459 0.266778,1.061201 0.800182,1.280169 -0.263895,0.1123 -0.466115,0.277797 -0.606484,0.496765 -0.14037,0.213367 -0.210462,0.482983 -0.210462,0.808641 0,0.218968 0.0337,0.423871 0.101081,0.61477 0.07299,0.190906 0.185171,0.356565 0.336771,0.496935 0.157213,0.134753 0.353733,0.241394 0.589555,0.32 0.241436,0.07861 0.530682,0.117841 0.867569,0.117841 h 2.88039 v -0.993693 h -2.88039 c -0.291968,0 -0.508107,-0.06187 -0.648477,-0.1854 -0.14037,-0.129135 -0.210627,-0.305867 -0.210627,-0.530453 0,-0.460411 0.289246,-0.690629 0.867568,-0.690629 h 2.821303 V 37.72043 H 43.7831 c -0.578322,0 -0.867567,-0.224518 -0.867567,-0.673694 0,-0.218976 0.0674,-0.393022 0.202159,-0.522158 0.134757,-0.129144 0.353745,-0.193695 0.656944,-0.193695 h 2.846695 V 35.33702 Z m 4.087717,0 v 3.722502 c 0,0.286356 0.03656,0.550278 0.109546,0.791714 0.07861,0.23581 0.202186,0.440713 0.370629,0.614769 0.168444,0.174055 0.384583,0.311722 0.648477,0.412781 0.269511,0.09545 0.592295,0.143071 0.968485,0.143071 h 2.265608 v -0.993693 h -2.206519 c -0.224592,0 -0.412727,-0.02532 -0.564328,-0.07586 -0.145983,-0.05053 -0.263862,-0.117935 -0.353698,-0.202159 -0.08983,-0.08983 -0.154393,-0.193626 -0.193697,-0.311535 -0.0337,-0.123523 -0.05062,-0.252632 -0.05062,-0.387385 v -3.714209 z m 5.082925,0 v 3.722502 c 0,0.286356 0.03655,0.550278 0.109543,0.791714 0.07861,0.23581 0.202188,0.440713 0.370629,0.614769 0.168447,0.174055 0.384584,0.311722 0.648478,0.412781 0.269513,0.09545 0.592293,0.143071 0.968485,0.143071 h 2.265607 v -0.993693 h -2.206518 c -0.224591,0 -0.412727,-0.02532 -0.564327,-0.07586 -0.145983,-0.05053 -0.263863,-0.117935 -0.353699,-0.202159 -0.08984,-0.08983 -0.154559,-0.193626 -0.193863,-0.311535 -0.0337,-0.123527 -0.05046,-0.252636 -0.05046,-0.387389 v -3.714209 z m 7.483632,0 c -0.830986,0 -1.468169,0.23575 -1.911739,0.707388 -0.437952,0.471629 -0.656942,1.187609 -0.656942,2.147727 0,0.954501 0.21899,1.664778 0.656942,2.130798 0.44357,0.46602 1.080753,0.698924 1.911739,0.698924 h 0.774956 c 0.830986,0 1.465488,-0.232904 1.903439,-0.698924 0.443567,-0.46602 0.665241,-1.176297 0.665241,-2.130798 0,-0.960118 -0.221674,-1.676098 -0.665241,-2.147727 C 62.669354,35.57277 62.034852,35.33702 61.203866,35.33702 Z m 0,0.993863 h 0.774956 c 0.550249,0 0.948824,0.145877 1.195872,0.437841 0.247051,0.291965 0.370632,0.763645 0.370632,1.414947 0,0.65131 -0.126429,1.122981 -0.379095,1.414946 -0.247052,0.286347 -0.642774,0.429547 -1.187409,0.429547 H 60.42891 c -0.555864,0 -0.957288,-0.1432 -1.204339,-0.429547 -0.247051,-0.286356 -0.370464,-0.755172 -0.370464,-1.406482 0,-0.656919 0.123413,-1.131446 0.370464,-1.423411 0.252666,-0.291964 0.65409,-0.437841 1.204339,-0.437841 z m -10.914242,5.784425 a 8.5483824,8.5482576 0 0 0 -8.548386,8.548263 8.5483824,8.5482576 0 0 0 6.74e-4,0.01958 c 3.330701,1.438086 7.146911,1.212907 10.769011,1.053944 a 1.8817213,1.8816938 0 0 1 1.67854,-1.035521 1.8817213,1.8816938 0 0 1 1.881699,1.881673 1.8817213,1.8816938 0 0 1 -1.881699,1.881663 1.8817213,1.8816938 0 0 1 -1.316706,-0.539749 c -1.826521,0.130673 -3.698775,0.0054 -5.513638,-0.0056 C 44.8925,53.820031 43.03301,53.69065 41.35004,53.16737 a 8.5483824,8.5482576 0 0 0 1.21463,2.448647 l 0.04482,-0.02224 0.935952,0.224559 1.137949,-0.556345 0.824912,0.669376 0.670055,-0.299919 0.412788,0.170622 0.854956,-0.713201 0.593538,0.861253 0.348722,-0.291617 0.690636,0.409628 0.472374,-0.260421 0.754041,0.201334 0.938443,-0.572618 0.836363,0.596515 1.158531,-0.383904 0.247638,2.577613 a 8.5483824,8.5482576 0 0 0 1.009979,-0.625572 l 0.246147,-2.678516 1.248322,1.038843 0.444161,-0.373945 0.04149,0.01843 a 8.5483824,8.5482576 0 0 0 1.586587,-4.942268 8.5483824,8.5482576 0 0 0 -8.548389,-8.548262 z m -8.47436,5.89398 c -0.09522,-0.0061 -0.299953,0.06838 -0.498268,0.07968 -0.413234,0.120798 -0.795585,0.435241 -1.069565,0.647299 -0.222459,0.173936 -0.450732,0.374947 -0.63935,0.604154 -0.188619,0.229208 -0.356712,0.492585 -0.366978,0.832539 -0.01911,0.633208 0.415971,1.095244 0.869562,1.392537 0.453591,0.297284 0.976204,0.492831 1.36816,0.652449 2.897741,1.180121 5.724126,1.029597 8.552869,1.124162 0.82528,0.02758 2.033394,-0.03319 2.999727,-0.09694 a 1.3354152,1.3353956 0 0 0 1.157866,0.673533 1.3354152,1.3353956 0 0 0 1.335463,-1.335439 1.3354152,1.3353956 0 0 0 -1.335463,-1.335448 1.3354152,1.3353956 0 0 0 -1.321355,1.153531 c -0.942278,0.06019 -2.078943,0.115666 -2.808022,0.0913 -2.875079,-0.09612 -5.566478,0.03576 -8.26058,-1.061423 -0.405416,-0.165107 -0.882562,-0.353566 -1.222598,-0.576433 -0.340036,-0.222859 -0.493374,-0.416851 -0.486151,-0.656104 9.33e-4,-0.03296 0.0473,-0.165141 0.173779,-0.318835 0.126478,-0.153694 0.206802,-0.409186 0.398848,-0.559345 0.384085,-0.300302 0.729972,-0.583904 0.729972,-0.583904 0.485877,-0.578847 0.544511,-0.71954 0.422084,-0.7273 z m 16.647306,7.643357 -0.657276,0.726475 -0.515695,-0.228876 -0.522001,0.439004 -0.854457,-0.71071 -0.467232,5.086834 -0.117346,-0.147388 -0.511878,0.344404 -0.365816,-0.559012 -0.449136,0.269877 -0.10158,-1.3688 -0.308058,-3.208154 -0.817939,0.271043 -0.776117,-0.553864 -0.842339,0.514356 -0.766655,-0.204478 -0.543911,0.299256 -0.634204,-0.375771 -0.493121,0.412116 -0.594038,-0.861914 -0.673042,0.561331 -0.489968,-0.202488 -0.751551,0.336104 -0.815452,-0.662417 -1.017614,0.497438 -0.934125,-0.223905 -1.049482,0.521995 -1.113384,-0.795528 -1.187576,0.521334 a 0.34003858,0.34003362 0 1 0 0.272869,0.622908 l 0.834372,-0.366311 1.130481,0.807977 1.194381,-0.593533 0.93147,0.223405 0.846988,-0.414114 0.803004,0.652455 0.866241,-0.38772 0.599184,0.247803 0.416439,-0.34756 0.5947,0.863242 0.69628,-0.582742 0.554534,0.328634 0.644991,-0.355019 0.783419,0.20963 0.708396,-0.43237 0.691299,0.493774 0.336772,-0.111698 0.225233,2.351882 0.182576,2.46408 0.83487,-0.502578 0.385236,0.58789 0.561508,-0.378264 0.780925,0.981084 0.50441,-5.486503 0.298596,0.248463 0.63105,-0.531946 0.577104,0.256436 0.495612,-0.54756 0.529472,0.557016 0.575283,-0.418432 a 0.3399578,0.33995284 0 1 0 -0.400174,-0.549538 l -0.09229,0.06721 z m -13.224998,1.5464 -0.281001,0.137432 a 8.5483824,8.5482576 0 0 0 5.333053,1.875356 8.5483824,8.5482576 0 0 0 2.382455,-0.345059 l -0.09743,-1.014113 -0.62607,-0.447801 -0.612794,0.373774 -0.795535,-0.21262 -0.716363,0.394033 -0.4981,-0.294938 -0.84068,0.703234 -0.594703,-0.863737 -0.234526,0.195685 -0.676861,-0.279838 -0.947903,0.424075 z m 20.210528,0.816265 c -0.172221,-0.0029 -0.331581,0.01969 -0.478181,0.06757 -0.389473,0.124538 -0.693422,0.415942 -0.911888,0.874357 l -0.523495,1.098431 c -0.08211,0.172298 -0.03141,0.29567 0.151872,0.370131 l 2.823957,1.147225 c 0.18327,0.07446 0.315908,0.02556 0.398016,-0.146727 l 0.523494,-1.098261 c 0.218466,-0.458424 0.245835,-0.862356 0.08216,-1.211624 -0.162211,-0.352342 -0.528139,-0.644198 -1.097949,-0.87569 -0.358211,-0.145528 -0.680944,-0.220676 -0.967987,-0.225401 z m -30.514302,0.04398 c -0.132309,0.0069 -0.264816,0.03793 -0.397686,0.09295 -0.37535,0.155427 -0.557041,0.405532 -0.545071,0.750541 -0.136455,-0.116645 -0.288154,-0.186428 -0.454947,-0.209457 -0.16347,-0.02441 -0.341458,0.0031 -0.534119,0.08298 -0.129549,0.05365 -0.241874,0.122243 -0.336937,0.205815 -0.09357,0.08663 -0.16183,0.188695 -0.204651,0.305891 -0.03801,0.118886 -0.04892,0.252264 -0.03286,0.400333 0.01756,0.151136 0.07095,0.318723 0.160336,0.502748 l 0.76433,1.573447 0.587896,-0.243482 -0.764166,-1.573458 c -0.07746,-0.159483 -0.09841,-0.292568 -0.06257,-0.399499 0.03916,-0.108313 0.125229,-0.189964 0.258097,-0.244987 0.272385,-0.112786 0.485241,-0.01134 0.638686,0.304566 l 0.748729,1.541252 0.533122,-0.220914 -0.741924,-1.527305 c -0.153444,-0.315904 -0.09727,-0.528803 0.168469,-0.638843 0.129548,-0.05364 0.250342,-0.05956 0.362496,-0.0176 0.112155,0.04196 0.208522,0.14575 0.288968,0.311365 l 0.755203,1.555034 0.588061,-0.243489 -0.755368,-1.555028 c -0.08939,-0.184025 -0.189359,-0.332197 -0.299923,-0.444819 -0.105752,-0.110931 -0.220974,-0.192164 -0.345732,-0.243653 -0.119945,-0.04979 -0.246126,-0.0713 -0.378431,-0.0644 z m 30.476296,0.559007 c 0.204357,-0.0079 0.451523,0.0472 0.741424,0.164988 0.386537,0.157036 0.63416,0.338297 0.742921,0.544068 0.108764,0.20577 0.0914,0.459491 -0.05228,0.761002 L 65.70869,60.84055 c -0.01905,0.03999 -0.04865,0.05195 -0.08863,0.03569 l -2.074235,-0.842669 c -0.03999,-0.01625 -0.05043,-0.04447 -0.03138,-0.08448 l 0.35835,-0.752205 c 0.145155,-0.304584 0.335972,-0.487808 0.572292,-0.549708 0.05862,-0.01657 0.121927,-0.02627 0.190047,-0.02888 z m -28.17401,2.6045 -0.357848,2.109885 -2.532667,0.0068 0.521007,0.557179 1.928504,-0.0048 -0.308721,1.737764 0.513704,0.549718 0.379757,-2.240676 2.403701,0.0095 -0.521006,-0.55735 -1.803522,-0.0081 0.290795,-1.610467 z m 24.22671,1.500259 -0.408142,0.46058 1.868253,1.411132 c 0.143706,0.108543 0.291036,0.191596 0.442167,0.249296 0.150617,0.05297 0.304251,0.07348 0.460756,0.0614 0.156505,-0.01208 0.314312,-0.0601 0.47337,-0.144067 0.158549,-0.0887 0.315108,-0.220207 0.469555,-0.394525 l 0.929976,-1.049797 -0.498599,-0.376597 -0.90591,1.022406 c -0.09221,0.104068 -0.182116,0.181611 -0.269715,0.232701 -0.08529,0.04849 -0.167662,0.0776 -0.24681,0.08731 -0.08197,0.0076 -0.160548,-0.002 -0.235855,-0.02839 -0.07582,-0.03122 -0.147482,-0.07241 -0.215108,-0.123492 z m -1.480695,1.619422 c -0.07291,0.0023 -0.148128,0.01227 -0.225895,0.03003 -0.157631,0.03281 -0.321273,0.104448 -0.490797,0.214941 l -1.632729,1.064242 0.371457,0.485976 1.650656,-1.075852 c 0.145735,-0.09499 0.279715,-0.126765 0.401833,-0.09527 0.122994,0.02681 0.222349,0.08969 0.297931,0.188545 0.03781,0.04943 0.06548,0.103353 0.08332,0.161667 0.02082,0.05637 0.02866,0.113099 0.02322,0.170122 -0.0054,0.05701 -0.0265,0.113929 -0.06324,0.170792 -0.03675,0.05686 -0.09229,0.109545 -0.166642,0.158008 l -1.173302,0.764652 c -0.166552,0.108553 -0.260796,0.221475 -0.282662,0.338594 -0.02187,0.11711 0.02704,0.253928 0.146726,0.41046 l 0.840847,1.099757 0.526317,-0.343243 -0.768314,-1.004985 c -0.0357,-0.04668 -0.02833,-0.08653 0.02223,-0.1195 l 0.785244,-0.511705 1.508912,0.627225 0.584406,-0.38092 -1.550736,-0.655602 c 0.0929,-0.105806 0.157485,-0.213648 0.193699,-0.323653 0.03622,-0.110005 0.05128,-0.218552 0.04515,-0.325641 -0.0082,-0.109845 -0.03306,-0.215057 -0.07436,-0.31569 -0.04339,-0.10338 -0.09863,-0.199103 -0.165813,-0.286972 -0.08399,-0.109844 -0.184076,-0.20293 -0.30042,-0.279336 -0.113373,-0.07834 -0.238623,-0.128403 -0.37561,-0.150207 -0.06806,-0.01323 -0.138544,-0.0187 -0.211457,-0.01645 z m -19.162209,0.584075 c -0.104656,0.0027 -0.207746,0.01668 -0.309051,0.04198 -0.402121,0.103022 -0.766311,0.39931 -1.092636,0.888804 -0.324417,0.486627 -0.44493,0.917433 -0.361501,1.292456 0.08654,0.376784 0.359269,0.695584 0.818107,0.956352 l 0.427892,0.243152 c 0.458841,0.260778 0.888278,0.341151 1.288492,0.241003 0.40331,-0.0984 0.767223,-0.390895 1.09164,-0.877517 0.326327,-0.48949 0.447119,-0.924096 0.362497,-1.30374 -0.08152,-0.377889 -0.351635,-0.697244 -0.810473,-0.958019 l -0.427893,-0.243152 c -0.344131,-0.195571 -0.673103,-0.28939 -0.987074,-0.281323 z m 0.02058,0.603815 c 0.19126,-0.0067 0.400855,0.05473 0.628725,0.184237 l 0.427892,0.243152 c 0.303827,0.172681 0.474367,0.372136 0.511546,0.598511 0.03717,0.22638 -0.05499,0.505629 -0.276354,0.837681 -0.221367,0.332049 -0.451393,0.53277 -0.690139,0.602328 -0.233736,0.06846 -0.500948,0.01722 -0.801675,-0.153696 l -0.427893,-0.243152 c -0.306926,-0.174437 -0.479927,-0.373333 -0.519014,-0.596848 -0.03909,-0.223511 0.052,-0.501318 0.273367,-0.83337 0.223274,-0.334911 0.452831,-0.537972 0.688479,-0.609294 0.05969,-0.01737 0.121311,-0.0273 0.185066,-0.02955 z m 14.930754,1.014778 c -0.219278,-0.0078 -0.456967,0.02733 -0.712876,0.105069 l -0.477189,0.144898 c -0.511817,0.155446 -0.85657,0.408811 -1.034212,0.759999 -0.174184,0.350142 -0.163987,0.79824 0.03054,1.344242 0.193394,0.54281 0.472205,0.905707 0.836368,1.088805 0.367618,0.182033 0.807379,0.195282 1.319194,0.03983 l 0.47719,-0.144899 c 0.511816,-0.155445 0.855406,-0.406579 1.030724,-0.753524 0.178789,-0.348002 0.171482,-0.793473 -0.02191,-1.336278 -0.19453,-0.545997 -0.476238,-0.911528 -0.844994,-1.096767 -0.18265,-0.09315 -0.383556,-0.143665 -0.602834,-0.151375 z m -0.05095,0.599344 c 0.137555,0.0042 0.259161,0.03635 0.364819,0.09627 0.211318,0.11982 0.382903,0.364886 0.514867,0.735272 0.13196,0.370392 0.149742,0.662218 0.05327,0.875529 -0.09414,0.209058 -0.308883,0.364501 -0.644329,0.466393 l -0.477352,0.145059 c -0.342364,0.103974 -0.618553,0.09754 -0.828732,-0.01908 -0.210179,-0.116628 -0.381244,-0.360079 -0.513203,-0.730461 -0.133101,-0.373581 -0.153095,-0.66659 -0.06009,-0.878844 0.09646,-0.213307 0.314052,-0.371429 0.652959,-0.474365 l 0.477189,-0.144887 c 0.169451,-0.05147 0.323035,-0.0751 0.46059,-0.07087 z m -9.41297,0.150873 1.005166,2.877193 c 0.06345,0.197721 0.156163,0.356338 0.278013,0.475689 0.125647,0.116133 0.312034,0.179146 0.559349,0.189209 0.272776,0.01108 0.479785,-0.04775 0.620759,-0.176596 0.144777,-0.132058 0.222472,-0.310619 0.2332,-0.535602 l 0.0956,-2.004662 c 0.0029,-0.06044 0.02143,-0.106838 0.05577,-0.139088 0.03813,-0.03545 0.08454,-0.05199 0.13909,-0.04979 0.05092,0.002 0.09204,0.01712 0.123489,0.04531 0.03509,0.02833 0.06075,0.06465 0.07685,0.109044 l 0.791219,2.207476 c 0.06345,0.197725 0.155999,0.356176 0.277848,0.475522 0.125647,0.116133 0.312199,0.179316 0.559514,0.189376 0.272776,0.01111 0.479618,-0.04774 0.620595,-0.176597 0.144771,-0.132056 0.222469,-0.310609 0.233197,-0.535601 l 0.129628,-2.715032 -0.649307,-0.0264 -0.128301,2.689813 c -0.0027,0.05708 -0.02313,0.103293 -0.06125,0.138756 -0.03434,0.03223 -0.07873,0.04735 -0.13328,0.04514 -0.0982,-0.004 -0.163306,-0.05371 -0.195192,-0.149206 L 49.37309,68.02183 c -0.06344,-0.197719 -0.157845,-0.354567 -0.283492,-0.470709 -0.125486,-0.11949 -0.312033,-0.184289 -0.559347,-0.194358 -0.272776,-0.01108 -0.479625,0.04938 -0.620759,0.181578 -0.14097,0.128851 -0.216813,0.304182 -0.22739,0.525812 l -0.09577,2.009804 c -0.0027,0.05708 -0.02328,0.103299 -0.06141,0.138764 -0.03798,0.03209 -0.08421,0.047 -0.138759,0.04481 -0.05092,-0.002 -0.09221,-0.01548 -0.123819,-0.04034 -0.03145,-0.02819 -0.05511,-0.0645 -0.0712,-0.108884 l -0.97131,-2.784903 z m -2.344279,1.890628 -0.236186,0.65013 0.590218,0.18274 0.236188,-0.649959 z"
       id="path1059" />
  </g>
</svg>
