<?xml version="1.0" encoding="UTF-8" standalone="no"?>
<svg
   xmlns:dc="http://purl.org/dc/elements/1.1/"
   xmlns:cc="http://creativecommons.org/ns#"
   xmlns:rdf="http://www.w3.org/1999/02/22-rdf-syntax-ns#"
   xmlns:svg="http://www.w3.org/2000/svg"
   xmlns="http://www.w3.org/2000/svg"
   xmlns:sodipodi="http://sodipodi.sourceforge.net/DTD/sodipodi-0.dtd"
   xmlns:inkscape="http://www.inkscape.org/namespaces/inkscape"
   viewBox="0 0 199.99999 199.99999"
   version="1.1"
   id="svg879"
   sodipodi:docname="logo.svg"
   width="200"
   height="200"
   inkscape:version="0.92.2 (5c3e80d, 2017-08-06)"
   inkscape:export-filename="./logo-500px.png"
   inkscape:export-xdpi="240"
   inkscape:export-ydpi="240">
  <metadata
     id="metadata883">
    <rdf:RDF>
      <cc:Work
         rdf:about="">
        <dc:format>image/svg+xml</dc:format>
        <dc:type
           rdf:resource="http://purl.org/dc/dcmitype/StillImage" />
        <dc:title>logo</dc:title>
      </cc:Work>
    </rdf:RDF>
  </metadata>
  <sodipodi:namedview
     pagecolor="#ffffff"
     bordercolor="#666666"
     borderopacity="1"
     objecttolerance="10"
     gridtolerance="10"
     guidetolerance="10"
     inkscape:pageopacity="0"
     inkscape:pageshadow="2"
     inkscape:window-width="1533"
     inkscape:window-height="845"
     id="namedview881"
     showgrid="false"
     inkscape:zoom="1.3142321"
     inkscape:cx="-156.63828"
     inkscape:cy="13.190316"
     inkscape:window-x="67"
     inkscape:window-y="27"
     inkscape:window-maximized="1"
     inkscape:current-layer="svg879" />
  <defs
     id="defs871">
    <style
       id="style869">.cls-1{fill:#42b883;}.cls-2{fill:#35495e;}</style>
  </defs>
  <title
     id="title873">logo</title>
  <polygon
     class="cls-1"
     points="120.83,0 98.16,39.26 75.49,0 0,0 98.16,170.02 196.32,0 "
     id="polygon875"
     style="fill:#42b883"
     transform="translate(2,3.3484743)" />
  <polygon
     class="cls-2"
     points="120.83,0 98.16,39.26 75.49,0 39.26,0 98.16,102.01 157.06,0 "
     id="polygon877"
     style="fill:#35495e"
     transform="translate(2,3.3484743)" />
  <path
     sodipodi:nodetypes="cssssssssssssssssssssscc"
     inkscape:connector-curvature="0"
     id="path5117"
     d="m 148.98217,194.03341 c -3.96934,-1.86147 -3.82393,-26.76251 -3.82393,-64.86968 0,-29.603012 0.13185,-34.911011 0.94217,-37.928026 1.01473,-3.778055 2.43859,-6.284222 5.01182,-8.821411 3.58888,-3.538625 3.67441,-3.869141 3.83822,-14.832396 0.15278,-10.22357 1.02818,-16.556529 3.11023,-22.500539 1.49014,-4.254166 1.58733,-5.482076 0.5553,-7.016877 -1.19148,-1.771959 -1.21582,-4.166458 -0.0597,-5.871324 1.28678,-1.897488 1.11831,-2.709715 -0.88977,-4.289536 -2.76223,-2.173126 -2.01444,-4.200373 1.86502,-5.056031 2.66691,-0.588216 16.91389,-0.559439 19.71972,0.03981 3.7684,0.804862 4.43075,2.824575 1.645,5.016206 -2.11505,1.663964 -2.15907,1.994107 -0.58234,4.369357 1.29667,1.953374 1.19788,3.369898 -0.42701,6.122337 -0.84997,1.439843 -0.82509,1.860872 0.32525,5.496875 2.55981,8.091122 3.21469,12.417772 3.40399,22.489552 0.10189,5.416711 0.34315,10.499731 0.53633,11.295591 0.19316,0.795883 1.69133,2.857212 3.32929,4.580741 1.63795,1.723542 3.57365,4.473558 4.30154,6.111179 1.31745,2.963989 1.3242,3.140598 1.48959,39.033642 0.18352,39.8201 0.3101,64.75404 -3.55521,66.56641 -1.86561,0.87475 -2.96467,0.92446 -20.43629,0.92446 -17.01726,0 -18.60848,-0.0675 -20.29923,-0.86036 z"
     style="fill:#35495e;fill-opacity:1;stroke:#35495e;stroke-width:5.49943638;stroke-miterlimit:4;stroke-dasharray:none;stroke-opacity:1" />
</svg>
